<svg width="591" height="518" viewBox="0 0 591 518" fill="none" xmlns="http://www.w3.org/2000/svg">
<path d="M329.529 518C447.854 518 543.776 501.058 543.776 480.16C543.776 459.261 447.854 442.319 329.529 442.319C211.204 442.319 115.283 459.261 115.283 480.16C115.283 501.058 211.204 518 329.529 518Z" fill="#1E40AF"/>
<path d="M186.948 235.152C200.566 214.914 206.479 190.467 203.615 166.244C200.75 142.022 189.298 119.627 171.335 103.122C153.372 86.617 130.088 77.0942 105.704 76.2806C81.3211 75.467 57.4534 83.4165 38.4296 98.6875C19.4059 113.958 6.48579 135.54 2.01231 159.517C-2.46116 183.495 1.80822 208.282 14.0462 229.383C26.2842 250.484 45.6805 266.501 68.7176 274.53C91.7547 282.56 116.907 282.07 139.614 273.149C141.086 278.402 143.838 283.208 147.624 287.137C151.409 291.066 156.11 293.995 161.306 295.663C166.502 297.33 172.03 297.683 177.395 296.69C182.761 295.697 187.796 293.39 192.051 289.975C196.306 286.559 199.648 282.142 201.776 277.119C203.905 272.096 204.754 266.623 204.249 261.191C203.743 255.759 201.898 250.537 198.879 245.993C195.86 241.449 191.761 237.724 186.948 235.152V235.152Z" fill="#1D4ED8"/>
<path d="M162.874 157.821H41.5169V167.4H162.874V157.821Z" fill="white"/>
<path d="M162.874 173.786H41.5169V183.365H162.874V173.786Z" fill="white"/>
<path d="M162.874 189.75H41.5169V199.329H162.874V189.75Z" fill="white"/>
<path d="M404.051 159.281C390.434 139.043 384.521 114.596 387.385 90.3733C390.25 66.1506 401.702 43.7562 419.665 27.2511C437.628 10.7461 460.912 1.22329 485.296 0.409703C509.679 -0.403888 533.547 7.54559 552.57 22.8165C571.594 38.0875 584.514 59.6687 588.988 83.6466C593.461 107.624 589.192 132.411 576.954 153.512C564.716 174.613 545.32 190.63 522.282 198.66C499.245 206.689 474.093 206.199 451.386 197.278C449.914 202.531 447.162 207.337 443.376 211.266C439.591 215.195 434.89 218.125 429.694 219.792C424.498 221.459 418.97 221.812 413.605 220.819C408.239 219.827 403.204 217.519 398.949 214.104C394.694 210.688 391.352 206.271 389.224 201.248C387.095 196.225 386.246 190.752 386.751 185.32C387.257 179.888 389.102 174.666 392.121 170.122C395.14 165.578 399.239 161.853 404.051 159.281Z" fill="#1D4ED8"/>
<path d="M428.126 91.5293L549.483 91.5293V81.9506L428.126 81.9506V91.5293Z" fill="white"/>
<path d="M428.126 107.494L549.483 107.494V97.9151L428.126 97.9151V107.494Z" fill="white"/>
<path d="M428.126 123.458L549.483 123.458V113.879L428.126 113.879V123.458Z" fill="white"/>
<path d="M226.895 438.457C219.292 427.158 215.991 413.51 217.59 399.986C219.189 386.463 225.583 373.961 235.611 364.746C245.64 355.531 258.639 350.215 272.252 349.761C285.865 349.307 299.19 353.745 309.811 362.27C320.431 370.796 327.645 382.844 330.142 396.231C332.64 409.617 330.256 423.456 323.424 435.236C316.591 447.016 305.763 455.958 292.901 460.441C280.04 464.924 265.998 464.65 253.321 459.67C252.499 462.603 250.963 465.286 248.849 467.479C246.736 469.673 244.111 471.308 241.21 472.239C238.31 473.17 235.224 473.367 232.228 472.813C229.232 472.258 226.421 470.97 224.046 469.063C221.67 467.157 219.805 464.69 218.616 461.886C217.428 459.082 216.954 456.026 217.236 452.994C217.518 449.961 218.548 447.046 220.234 444.509C221.919 441.972 224.208 439.892 226.895 438.457V438.457Z" fill="#1D4ED8"/>
<path d="M251.783 411.961C255.424 411.961 258.375 409.011 258.375 405.372C258.375 401.732 255.424 398.782 251.783 398.782C248.143 398.782 245.192 401.732 245.192 405.372C245.192 409.011 248.143 411.961 251.783 411.961Z" fill="white"/>
<path d="M274.271 411.961C277.911 411.961 280.862 409.011 280.862 405.372C280.862 401.732 277.911 398.782 274.271 398.782C270.631 398.782 267.68 401.732 267.68 405.372C267.68 409.011 270.631 411.961 274.271 411.961Z" fill="white"/>
<path d="M296.759 411.961C300.399 411.961 303.35 409.011 303.35 405.372C303.35 401.732 300.399 398.782 296.759 398.782C293.118 398.782 290.167 401.732 290.167 405.372C290.167 409.011 293.118 411.961 296.759 411.961Z" fill="white"/>
<path d="M280.872 200.942C280.872 200.942 310.28 201.741 315.137 203.508C319.994 205.274 322.166 217.907 322.166 217.907L299.332 225.083L282.254 224.116L269.401 225.024L276.577 206.232L280.872 200.942Z" fill="#2F2E41"/>
<path d="M282.14 191.294C282.14 191.294 284.075 198.765 279.781 204.055C275.487 209.346 298.242 228.197 298.242 228.197L310.246 226.134C310.246 226.134 307.6 203.177 311.154 197.364C314.708 191.55 282.14 191.294 282.14 191.294Z" fill="#9F616A"/>
<path opacity="0.1" d="M282.14 191.294C282.14 191.294 284.075 198.765 279.781 204.055C275.487 209.346 298.242 228.197 298.242 228.197L310.246 226.134C310.246 226.134 307.6 203.177 311.154 197.364C314.708 191.55 282.14 191.294 282.14 191.294Z" fill="black"/>
<path d="M361.975 409.74L335.489 444.857L353.565 455.408L378.442 414.714L361.975 409.74Z" fill="#9F616A"/>
<path d="M343.396 445.449C343.396 445.449 333.643 434.119 334.077 436.645C334.512 439.172 327.137 460.599 333.998 462.672C340.859 464.744 399.696 470.242 400.506 463.599C401.315 456.957 382.953 452.308 382.953 452.308C382.953 452.308 372.045 441.827 369.626 442.893C367.208 443.959 343.396 445.449 343.396 445.449Z" fill="#1E3A8A"/>
<path d="M356.033 443.278L377.189 479.312L393.161 470.064L371.828 440.563L356.033 443.278Z" fill="#9F616A"/>
<path d="M389.429 357.549L383.151 366.432C383.151 366.432 353.219 407.993 356.398 411.349C359.577 414.705 372.815 427.387 379.548 424.93C386.28 422.472 410.2 379.993 410.2 379.993L403.961 355.052L389.429 357.549Z" fill="#1E3A8A"/>
<path d="M260.491 349.141C260.491 349.141 267.195 361.645 284.184 365.879C301.174 370.114 318.924 378.769 319.555 378.661C320.187 378.552 321.974 377.595 322.409 380.121C322.843 382.648 327.502 387.05 327.502 387.05C327.502 387.05 346.269 450.808 353.436 450.877C360.603 450.946 375.332 445.814 375.638 443.811C375.944 441.807 353.693 376.697 353.476 375.433L350.869 360.273C350.869 360.273 380.298 364.971 383.042 365.8C385.786 366.629 410.2 379.993 410.2 379.993C410.2 379.993 435.087 362.06 411.809 343.949C388.531 325.838 348.52 312.553 348.52 312.553L334.166 308.517L321.656 307.77L319.814 300.708L290.186 302.417L259.267 315.534L260.491 349.141Z" fill="#1E3A8A"/>
<path d="M299.594 206.165C312.34 206.165 322.672 195.835 322.672 183.092C322.672 170.349 312.34 160.019 299.594 160.019C286.848 160.019 276.515 170.349 276.515 183.092C276.515 195.835 286.848 206.165 299.594 206.165Z" fill="#9F616A"/>
<path d="M278.715 201.637L281.49 201.16C281.49 201.16 286.504 220.459 302.013 223.647C302.013 223.647 309.665 214.481 309.338 212.935C309.012 211.389 315.399 203.137 318.795 207.756C322.191 212.375 317.966 293.741 320.819 295.202C323.672 296.663 329.792 298.212 324.866 303.611C319.94 309.01 300.374 316.274 296.04 313.767C291.706 311.26 282.851 290.021 279.021 282.875C275.191 275.729 269.06 251.42 269.06 251.42C269.06 251.42 261.231 224.802 266.049 218.771C270.866 212.741 278.715 201.637 278.715 201.637Z" fill="#D0CDE1"/>
<path d="M300.802 301.807C300.286 307.475 299.403 313.104 298.158 318.657C297.027 323.176 295.709 325.904 294.205 325.788C290.367 325.501 288.623 331.128 287.724 337.615C286.763 344.498 286.763 352.349 286.235 355.124C285.538 358.79 281.072 361.588 272.149 360.766C266.835 360.162 261.62 358.883 256.629 356.961C244.582 352.582 244.939 317.068 246.954 290.716C248.187 274.564 250.04 261.845 250.04 261.845C250.04 261.845 246.38 250.932 245.21 243.453C244.977 242.088 244.86 240.706 244.861 239.322C245.039 232.788 256.97 215.132 264.18 204.134C271.397 193.136 281.243 201.204 281.243 201.204L277.816 211.544C277.816 211.544 283.127 219.736 283.165 227.533C283.204 235.33 295.879 240.957 300.43 244.732C303.291 247.104 303.221 278.765 300.802 301.807Z" fill="#1E3A8A"/>
<path d="M310.823 204.899C310.823 204.899 311.655 205.882 315.463 205.403C320.03 204.827 326.309 206.407 327.768 210.767C330.444 218.761 337.986 251.282 337.986 251.282C337.986 251.282 341.125 288.461 342.537 296.673C343.949 304.884 343.248 312.158 344.64 316.471C346.032 320.784 330.898 308.428 325.32 310.036C319.743 311.645 316.159 290.8 316.86 283.526C317.561 276.252 318.153 268.347 316.218 260.875C314.283 253.404 317.714 233.63 317.585 229.1C317.457 224.57 305.287 213.152 310.823 204.899Z" fill="#1E3A8A"/>
<path d="M327.153 320.452C327.153 320.452 351.589 333.78 353.927 352.75C356.266 371.72 321.244 334.382 321.244 334.382L327.153 320.452Z" fill="#9F616A"/>
<path d="M341.102 306.999C341.102 306.999 348.589 344.732 360.254 342.728C371.918 340.723 353.738 304.828 353.738 304.828L341.102 306.999Z" fill="#9F616A"/>
<path d="M381.048 471.495C381.048 471.495 375.076 478.374 373.595 477.328C372.114 476.282 368.708 490.524 371.779 493.248C374.849 495.972 386.675 500.443 386.804 504.973C386.932 509.503 418.651 508.605 419.786 503.858C420.921 499.111 415.808 488.283 412.214 486.3C408.621 484.316 395.334 466.057 395.334 466.057C395.334 466.057 384.928 467.577 381.048 471.495Z" fill="#1E3A8A"/>
<path opacity="0.1" d="M323.261 343.529C317.594 339.529 301.771 338.537 287.724 337.615C281.561 337.22 275.739 336.832 271.266 336.205C266.955 335.608 263.079 331.67 259.637 325.803C254.42 316.913 250.202 303.582 246.954 290.716C248.187 274.564 250.04 261.845 250.04 261.845C250.04 261.845 246.38 250.932 245.21 243.453C246.035 242.305 247.098 241.348 248.326 240.647C263.226 234.253 277.452 297.18 279.258 307.054C279.289 307.217 279.313 307.372 279.336 307.504C280.212 312.588 289.677 316.936 298.158 318.657C303.384 319.719 308.244 319.789 310.485 318.409C316.369 314.797 334.463 329.252 335.835 329.663C337.207 330.081 331.401 349.287 323.261 343.529Z" fill="black"/>
<path d="M248.329 236.774C248.329 236.774 237.499 241.886 242.258 265.781C247.016 289.675 256.602 330.299 271.262 332.332C285.922 334.365 315.113 333.901 323.257 339.656C331.402 345.41 337.206 326.203 335.834 325.789C334.462 325.374 316.367 310.925 310.483 314.537C304.599 318.149 280.749 311.843 279.337 303.631C277.925 295.419 263.472 230.269 248.329 236.774Z" fill="#1E3A8A"/>
<path d="M326.367 225.315L338.269 252.926C338.269 252.926 339.467 252.328 340.859 256.641C342.251 260.954 342.902 264.744 345.341 267.577C347.779 270.409 358.629 310.816 358.954 312.711C359.28 314.606 343.97 321.139 340.548 315.874C337.127 310.609 326.367 225.315 326.367 225.315Z" fill="#1E3A8A"/>
<path d="M286.464 182.771C287.348 182.535 287.478 181.361 287.508 180.446C287.666 175.547 290.617 170.521 295.307 169.095C297.107 168.601 298.991 168.497 300.834 168.79C303.465 169.141 306.005 169.988 308.319 171.287C309.541 171.974 310.739 172.801 312.125 173.01C313.04 173.149 317.002 174.301 317.913 174.463C319.917 174.819 321.779 176.611 323.701 175.944C325.54 175.306 325.947 172.926 325.992 170.98C326.093 166.547 322.727 160.411 319.762 157.114C317.513 154.611 314.125 153.456 310.813 152.855C306.945 152.234 303.025 151.995 299.11 152.143C293.81 152.238 288.363 152.647 283.585 154.939C278.806 157.232 274.792 161.795 274.563 167.089C274.515 168.192 274.629 169.299 274.536 170.399C274.31 173.083 272.884 175.507 272.216 178.115C271.738 180.029 271.666 182.022 272.006 183.966C272.346 185.909 273.089 187.76 274.188 189.398C275.962 192.008 278.749 194.368 278.647 197.521L282.492 193.538C283.067 193.099 283.473 192.477 283.644 191.775C283.815 191.073 283.74 190.334 283.431 189.68L282.07 184.372C281.72 183.425 281.679 182.391 281.952 181.418C283.411 177.813 284.989 183.165 286.464 182.771Z" fill="#1E3A8A"/>
<path d="M461.235 448.236C461.075 447.975 457.317 441.702 456.014 428.676C454.819 416.724 455.588 396.58 466.038 368.479C485.834 315.245 461.475 272.293 461.226 271.865L462.428 271.168C462.491 271.277 468.777 282.228 472.49 299.666C477.396 322.785 475.61 346.823 467.34 368.963C447.577 422.107 462.269 447.264 462.42 447.512L461.235 448.236Z" fill="#3F3D56"/>
<path d="M453.494 268.739C458.48 268.739 462.522 264.698 462.522 259.713C462.522 254.728 458.48 250.687 453.494 250.687C448.507 250.687 444.465 254.728 444.465 259.713C444.465 264.698 448.507 268.739 453.494 268.739Z" fill="#1D4ED8"/>
<path d="M481.967 302.067C486.953 302.067 490.995 298.025 490.995 293.04C490.995 288.055 486.953 284.014 481.967 284.014C476.981 284.014 472.939 288.055 472.939 293.04C472.939 298.025 476.981 302.067 481.967 302.067Z" fill="#1E40AF"/>
<path d="M462.522 324.285C467.508 324.285 471.55 320.244 471.55 315.259C471.55 310.274 467.508 306.233 462.522 306.233C457.536 306.233 453.494 310.274 453.494 315.259C453.494 320.244 457.536 324.285 462.522 324.285Z" fill="#1D4ED8"/>
<path d="M486.134 343.031C491.12 343.031 495.162 338.99 495.162 334.005C495.162 329.02 491.12 324.979 486.134 324.979C481.148 324.979 477.106 329.02 477.106 334.005C477.106 338.99 481.148 343.031 486.134 343.031Z" fill="#1D4ED8"/>
<path d="M455.577 372.193C460.563 372.193 464.605 368.152 464.605 363.167C464.605 358.182 460.563 354.141 455.577 354.141C450.591 354.141 446.549 358.182 446.549 363.167C446.549 368.152 450.591 372.193 455.577 372.193Z" fill="#1E40AF"/>
<path d="M466.689 448.568C466.689 448.568 457.66 426.35 484.745 409.686L466.689 448.568Z" fill="#1E40AF"/>
<path d="M455.585 448.165C455.585 448.165 451.476 424.538 419.675 424.74L455.585 448.165Z" fill="#1E40AF"/>
</svg>
