<svg width="45" height="43" viewBox="0 0 45 43" fill="none" xmlns="http://www.w3.org/2000/svg">
<path fill-rule="evenodd" clip-rule="evenodd" d="M22.4777 0.254117C10.4844 0.254117 0.760376 9.97812 0.760376 21.9741C0.760376 31.5701 6.98304 39.7101 15.6137 42.5834C16.7004 42.7821 17.0964 42.1114 17.0964 41.5354C17.0964 41.0208 17.0777 39.6541 17.067 37.8421C11.0257 39.1541 9.75104 34.9301 9.75104 34.9301C8.76304 32.4221 7.33904 31.7541 7.33904 31.7541C5.36704 30.4061 7.48838 30.4328 7.48838 30.4328C9.66838 30.5874 10.815 32.6714 10.815 32.6714C12.7524 35.9901 15.899 35.0314 17.1364 34.4768C17.3337 33.0728 17.8937 32.1154 18.515 31.5728C13.6924 31.0248 8.62171 29.1608 8.62171 20.8381C8.62171 18.4674 9.46838 16.5288 10.8577 15.0101C10.6337 14.4608 9.88838 12.2528 11.0697 9.26212C11.0697 9.26212 12.8937 8.67812 17.043 11.4888C18.775 11.0075 20.6337 10.7661 22.4804 10.7581C24.3244 10.7661 26.183 11.0075 27.9177 11.4888C32.0644 8.67812 33.8844 9.26212 33.8844 9.26212C35.0697 12.2528 34.3244 14.4608 34.1004 15.0101C35.4924 16.5288 36.3337 18.4674 36.3337 20.8381C36.3337 29.1821 31.255 31.0181 26.4164 31.5554C27.1964 32.2261 27.891 33.5514 27.891 35.5781C27.891 38.4808 27.8644 40.8234 27.8644 41.5354C27.8644 42.1168 28.255 42.7928 29.3577 42.5808C37.9817 39.7021 44.199 31.5675 44.199 21.9741C44.199 9.97812 34.4737 0.254117 22.4777 0.254117Z" fill="#1B1817"/>
</svg>
