<svg width="716" height="605" viewBox="0 0 716 605" fill="none" xmlns="http://www.w3.org/2000/svg">
<g clip-path="url(#clip0)">
<path d="M705.666 206.72C706.506 210 707.293 213.297 708.026 216.61H458.296V206.72H705.666Z" fill="#E6E6E6"/>
<path d="M697.706 180.65C693.686 169.296 688.997 158.19 683.666 147.39C682.026 144.06 680.323 140.763 678.556 137.5C678.266 136.94 677.956 136.38 677.646 135.82V209.42H699.226V185.03L697.706 180.65Z" fill="#E6E6E6"/>
<path d="M683.666 147.39H677.646V137.5H678.556C680.326 140.76 682.029 144.057 683.666 147.39Z" fill="#CCCCCC"/>
<path d="M697.706 180.65H677.646V190.54H699.226V185.03L697.706 180.65Z" fill="#CCCCCC"/>
<path d="M665.96 124.017H644.385V209.421H665.96V124.017Z" fill="#E6E6E6"/>
<path d="M665.96 137.502H644.385V147.391H665.96V137.502Z" fill="#CCCCCC"/>
<path d="M665.96 180.653H644.385V190.542H665.96V180.653Z" fill="#CCCCCC"/>
<path d="M567.566 123.52H490.166C488.973 123.522 487.83 123.997 486.986 124.84C486.143 125.684 485.668 126.827 485.666 128.02V205.42C485.668 205.86 485.732 206.298 485.856 206.72C486.137 207.645 486.707 208.455 487.483 209.031C488.259 209.607 489.2 209.919 490.166 209.92H567.566C568.532 209.919 569.473 209.607 570.249 209.031C571.025 208.455 571.595 207.645 571.876 206.72C572.001 206.298 572.065 205.86 572.066 205.42V128.02C572.064 126.827 571.589 125.684 570.746 124.84C569.902 123.997 568.759 123.522 567.566 123.52V123.52Z" fill="#E6E6E6"/>
<path d="M562.066 129.02H495.666C494.473 129.022 493.33 129.497 492.486 130.34C491.643 131.184 491.168 132.327 491.166 133.52V199.92C491.168 201.113 491.643 202.256 492.486 203.1C493.33 203.944 494.473 204.418 495.666 204.42H562.066C563.259 204.418 564.402 203.944 565.246 203.1C566.089 202.256 566.564 201.113 566.566 199.92V133.52C566.564 132.327 566.089 131.184 565.246 130.34C564.402 129.497 563.259 129.022 562.066 129.02V129.02Z" fill="white"/>
<path d="M550.486 140.6H507.246C506.053 140.602 504.91 141.076 504.066 141.92C503.223 142.764 502.748 143.907 502.746 145.1V188.34C502.748 189.533 503.223 190.676 504.066 191.52C504.91 192.363 506.053 192.838 507.246 192.84H550.486C551.678 192.834 552.819 192.358 553.661 191.515C554.504 190.673 554.98 189.532 554.986 188.34V145.1C554.984 143.907 554.51 142.764 553.666 141.92C552.823 141.076 551.679 140.602 550.486 140.6V140.6Z" fill="#CCCCCC"/>
<path d="M547.82 180.713L538.687 164.894C538.512 164.59 538.259 164.338 537.955 164.162C537.651 163.987 537.306 163.894 536.955 163.894C536.604 163.894 536.259 163.987 535.955 164.162C535.651 164.338 535.399 164.59 535.223 164.894L528.554 176.445L519.808 161.298C519.633 160.994 519.38 160.742 519.076 160.566C518.772 160.391 518.427 160.298 518.076 160.298C517.725 160.298 517.38 160.391 517.076 160.566C516.772 160.742 516.52 160.994 516.344 161.298L507.211 177.117L496.346 195.936H517.301L515.225 199.532H558.686L547.82 180.713Z" fill="white"/>
<path d="M544.597 156.381C548.072 156.381 550.89 153.563 550.89 150.088C550.89 146.612 548.072 143.795 544.597 143.795C541.121 143.795 538.304 146.612 538.304 150.088C538.304 153.563 541.121 156.381 544.597 156.381Z" fill="white"/>
<path d="M715.216 276.6C715.146 272.72 714.993 268.86 714.756 265.02C714.656 263.18 714.536 261.35 714.386 259.52H672.166C670.973 259.522 669.83 259.997 668.986 260.84C668.143 261.684 667.668 262.827 667.666 264.02V341.42C667.664 341.774 667.707 342.127 667.796 342.47C668.032 343.452 668.592 344.325 669.384 344.951C670.177 345.577 671.156 345.918 672.166 345.92H711.086C711.286 344.78 711.476 343.62 711.646 342.47C711.756 341.79 711.866 341.1 711.966 340.42C712.206 338.79 712.436 337.16 712.646 335.53C712.946 333.31 713.216 331.08 713.456 328.84C714.336 320.81 714.903 312.693 715.156 304.49V304.48C715.246 301.39 715.293 298.287 715.296 295.17V283.17C715.296 280.97 715.276 278.78 715.216 276.6Z" fill="#E6E6E6"/>
<path d="M715.216 276.6C715.146 272.72 714.993 268.86 714.756 265.02H677.666C676.473 265.022 675.33 265.497 674.486 266.34C673.642 267.184 673.168 268.327 673.166 269.52V335.92C673.168 337.113 673.642 338.256 674.486 339.1C675.33 339.944 676.473 340.418 677.666 340.42H711.966C712.206 338.79 712.436 337.16 712.646 335.53C712.946 333.31 713.216 331.08 713.456 328.84C714.336 320.81 714.903 312.693 715.156 304.49V304.48C715.246 301.39 715.293 298.287 715.296 295.17V283.17C715.296 280.97 715.276 278.78 715.216 276.6Z" fill="white"/>
<path d="M715.216 276.6H689.246C688.053 276.602 686.91 277.076 686.066 277.92C685.223 278.764 684.748 279.907 684.746 281.1V324.34C684.748 325.533 685.223 326.676 686.066 327.52C686.91 328.363 688.053 328.838 689.246 328.84H713.456C714.336 320.81 714.903 312.693 715.156 304.49V304.48C715.246 301.39 715.293 298.287 715.296 295.17V283.17C715.296 280.97 715.276 278.78 715.216 276.6Z" fill="#CCCCCC"/>
<path d="M715.156 304.49C714.906 312.69 714.34 320.807 713.456 328.84C713.216 331.08 712.946 333.31 712.646 335.53H697.226L699.306 331.94H678.346L684.746 320.85L689.206 313.12L698.346 297.3C698.52 296.995 698.772 296.741 699.076 296.564C699.38 296.388 699.725 296.295 700.076 296.295C700.428 296.295 700.773 296.388 701.077 296.564C701.38 296.741 701.632 296.995 701.806 297.3L710.556 312.45L715.156 304.49Z" fill="white"/>
<path d="M639.386 80.87H458.296V70.98H630.406C633.466 74.21 636.46 77.5066 639.386 80.87Z" fill="#E6E6E6"/>
<path d="M554.486 12.28C561.866 16.34 569.059 20.69 576.066 25.33V73.67H554.486V12.28Z" fill="#E6E6E6"/>
<path d="M576.061 44.9058H554.486V54.7947H576.061V44.9058Z" fill="#CCCCCC"/>
<path d="M609.326 50.73V73.67H587.746V33.46C592.776 37.13 597.693 40.9467 602.496 44.91C604.796 46.81 607.073 48.75 609.326 50.73Z" fill="#E6E6E6"/>
<path d="M609.326 50.73V54.79H587.746V44.91H602.496C604.796 46.81 607.073 48.75 609.326 50.73Z" fill="#CCCCCC"/>
<path d="M532.456 1.26001C538.166 3.82995 543.779 6.56995 549.296 9.48001L544.856 18.44L530.106 48.25L525.716 57.11L518.846 70.98L517.336 74.03L511.186 70.98L498.006 64.45L506.376 47.53H506.386L510.766 38.67L525.526 8.86L529.866 0.100006L529.916 0L532.456 1.26001Z" fill="#E6E6E6"/>
<path d="M549.246 9.57L544.856 18.44L525.526 8.86L529.866 0.1L529.916 0L532.456 1.26L549.246 9.57Z" fill="#CCCCCC"/>
<path d="M510.767 38.6727L506.379 47.535L525.715 57.1079L530.102 48.2457L510.767 38.6727Z" fill="#CCCCCC"/>
<path d="M711.646 342.47C711.476 343.62 711.286 344.78 711.086 345.92C710.736 348.08 710.356 350.22 709.946 352.36H458.296V342.47H711.646Z" fill="#E6E6E6"/>
<path d="M576.061 259.765H554.486V345.169H576.061V259.765Z" fill="#E6E6E6"/>
<path d="M576.061 273.249H554.486V283.138H576.061V273.249Z" fill="#CCCCCC"/>
<path d="M576.061 316.401H554.486V326.29H576.061V316.401Z" fill="#CCCCCC"/>
<path d="M609.324 259.765H587.748V345.169H609.324V259.765Z" fill="#E6E6E6"/>
<path d="M609.324 273.249H587.748V283.138H609.324V273.249Z" fill="#CCCCCC"/>
<path d="M609.324 316.401H587.748V326.29H609.324V316.401Z" fill="#CCCCCC"/>
<path d="M535.896 259.411L498.003 335.949L517.338 345.522L555.231 268.984L535.896 259.411Z" fill="#E6E6E6"/>
<path d="M529.912 271.496L525.525 280.359L544.861 289.931L549.248 281.069L529.912 271.496Z" fill="#CCCCCC"/>
<path d="M510.766 310.168L506.379 319.03L525.715 328.603L530.102 319.741L510.766 310.168Z" fill="#CCCCCC"/>
<path d="M292.798 380.582C293.7 381.101 294.559 381.69 295.368 382.344L384.397 354.638L389.417 332.55L423.743 335.77L418.655 375.736C418.244 378.965 416.797 381.973 414.531 384.309C412.264 386.645 409.301 388.183 406.087 388.692L301.314 405.28C299.785 408.985 297.165 412.137 293.801 414.316C290.438 416.495 286.491 417.599 282.485 417.48C278.479 417.361 274.604 416.026 271.376 413.651C268.147 411.276 265.718 407.975 264.412 404.186C263.106 400.397 262.984 396.3 264.063 392.441C265.142 388.581 267.37 385.141 270.451 382.579C273.533 380.016 277.322 378.453 281.313 378.096C285.305 377.739 289.311 378.606 292.798 380.582V380.582Z" fill="#FFB8B8"/>
<path d="M439.606 349.02L439.016 338.94V338.93L438.856 336.17L437.116 306.49C437.637 300.303 435.684 294.161 431.687 289.41C427.689 284.659 421.971 281.685 415.786 281.14C414.007 280.98 412.215 281.027 410.446 281.28C405.192 282.023 400.343 284.519 396.685 288.364C393.028 292.208 390.776 297.175 390.296 302.46L386.686 317.48L380.376 343.75C379.929 345.588 380.114 347.523 380.902 349.243C381.689 350.963 383.033 352.367 384.716 353.23C385.688 353.741 386.752 354.054 387.846 354.15L398.366 355.09L408.496 355.99L420.186 357.03L421.026 357.1L423.186 357.3L430.416 357.94H430.436C431.644 358.037 432.858 357.877 433.999 357.47C435.141 357.064 436.182 356.419 437.056 355.58C437.693 354.96 438.229 354.245 438.646 353.46C439.375 352.099 439.708 350.561 439.606 349.02V349.02Z" fill="#1D4ED8"/>
<path d="M537.302 226.793C537.302 261.018 505.655 255.841 466.617 255.841C427.578 255.841 395.932 261.018 395.932 226.793C395.932 192.567 411.39 131.9 466.617 131.9C523.746 131.9 537.302 192.567 537.302 226.793Z" fill="#2F2E41"/>
<path d="M500.013 241.853C518.588 223.278 518.588 193.162 500.013 174.587C481.438 156.012 451.322 156.012 432.747 174.587C414.172 193.162 414.172 223.278 432.747 241.853C451.322 260.428 481.438 260.428 500.013 241.853Z" fill="#FFB8B8"/>
<path d="M533.336 275.78C532.42 274.898 531.448 274.076 530.426 273.32C523.959 268.434 515.833 266.283 507.796 267.33L420.146 278.42C412.117 279.417 404.793 283.501 399.724 289.807C394.656 296.113 392.243 304.145 392.996 312.2C393.246 315 393.526 317.95 393.836 321.02C394.236 324.87 394.686 328.91 395.206 333.09C396.066 340.12 397.116 347.54 398.366 355.09C399.456 361.59 400.696 368.18 402.116 374.69C402.526 376.57 402.953 378.443 403.396 380.31C403.395 380.315 403.396 380.321 403.398 380.326C403.399 380.331 403.402 380.336 403.406 380.34C403.456 380.57 403.506 380.8 403.566 381.02C403.563 381.037 403.567 381.055 403.576 381.07C404.196 383.67 404.846 386.24 405.526 388.78C405.786 389.72 406.036 390.65 406.296 391.57C406.996 394.07 407.736 396.52 408.496 398.93C414.206 416.86 421.756 432.13 431.726 440.25C431.856 440.37 431.986 440.47 432.126 440.58L432.526 440.89L433.106 440.71L435.566 439.98L437.666 439.34L465.026 431.11L471.836 429.06L493.716 422.47H493.726L513.736 416.45L516.176 415.71L533.366 410.54L533.916 404.12L534.656 395.6L535.096 390.48L538.576 350.1L540.606 326.54L542.806 300.96C543.215 296.321 542.576 291.65 540.937 287.292C539.298 282.934 536.7 278.999 533.336 275.78V275.78Z" fill="#1E3A8A"/>
<path d="M582.346 471.17C582.116 470.5 581.896 469.83 581.666 469.17C571.386 439.17 556.226 416.48 533.916 404.12C533.906 404.12 533.906 404.11 533.896 404.11L533.516 403.9L514.076 410.63L511.676 411.46L509.176 412.33L509.146 412.34L490.946 418.64L490.916 418.65L476.636 423.59H476.626L463.416 428.16H463.406L460.336 429.23L437.246 437.22L434.566 438.15L432.166 438.98L431.796 439.11L431.726 440.25L430.076 469.17L429.966 471.17L427.906 507.26L359.496 604.17H406.296C421.977 604.174 437.636 602.98 453.136 600.6L497.046 553.28C497.414 552.899 497.879 552.626 498.391 552.49C498.903 552.354 499.442 552.36 499.951 552.509C500.459 552.657 500.918 552.941 501.276 553.331C501.635 553.721 501.881 554.201 501.986 554.72L508.436 586.72C540.212 575.484 569.937 559.128 596.436 538.3C593.356 513.45 588.856 490.8 582.346 471.17Z" fill="#1E3A8A"/>
<path d="M411.424 203.554H430.237L438.536 180.315L440.196 203.554H449.187L454.029 189.998L454.997 203.554H521.809C521.809 196.941 520.507 190.394 517.976 184.285C515.446 178.176 511.737 172.626 507.062 167.95C502.386 163.275 496.835 159.566 490.727 157.035C484.618 154.505 478.07 153.203 471.458 153.203H461.775C448.421 153.203 435.614 158.507 426.172 167.95C416.729 177.393 411.424 190.2 411.424 203.554V203.554Z" fill="#2F2E41"/>
<path d="M295.709 455.557C292.638 456.848 289.321 457.449 285.992 457.319C282.663 457.189 279.404 456.331 276.442 454.804C273.481 453.278 270.891 451.121 268.853 448.485C266.816 445.849 265.381 442.799 264.65 439.549L184.184 430.436L211.157 398.135L283.434 411.742C288.975 410.875 294.642 412.072 299.36 415.105C304.078 418.138 307.52 422.796 309.033 428.197C310.546 433.598 310.026 439.366 307.57 444.409C305.114 449.452 300.894 453.418 295.709 455.557L295.709 455.557Z" fill="#A0616A"/>
<path d="M252.326 395.77L218.316 389.69L215.846 389.25C213.872 388.897 211.996 388.131 210.339 387.002C208.682 385.872 207.284 384.405 206.234 382.697C205.185 380.988 204.509 379.077 204.251 377.089C203.993 375.1 204.158 373.08 204.736 371.16L221.436 315.67L221.936 314.02C224.021 306.967 223.65 299.415 220.883 292.601C218.116 285.786 213.118 280.113 206.706 276.51C202.366 274.1 197.529 272.723 192.57 272.488C187.611 272.252 182.665 273.163 178.116 275.15C173.567 277.137 169.537 280.147 166.341 283.945C163.144 287.744 160.867 292.228 159.686 297.05L138.386 383.98L137.596 387.2C136.109 393.266 135.946 399.581 137.121 405.715C138.295 411.849 140.778 417.658 144.401 422.745C148.024 427.832 152.701 432.079 158.114 435.194C163.526 438.31 169.547 440.222 175.766 440.8C175.836 440.81 175.896 440.81 175.966 440.82L188.716 441.95L205.256 443.42L226.056 445.27L245.466 447C248.009 447.23 250.545 446.497 252.571 444.944C254.598 443.392 255.967 441.135 256.406 438.62C256.436 438.48 256.456 438.34 256.476 438.2L260.596 407.44L260.636 407.16C260.992 404.556 260.325 401.915 258.775 399.791C257.226 397.668 254.915 396.227 252.326 395.77V395.77Z" fill="#CCCCCC"/>
<path d="M199.928 162.702C186.351 189.394 175.651 216.926 145.704 216.926C131.323 216.926 117.53 211.213 107.361 201.044C97.1925 190.875 91.4796 177.083 91.4796 162.702C91.4796 132.754 115.759 108.852 145.704 108.477C176.139 108.096 225.198 113.018 199.928 162.702Z" fill="#2F2E41"/>
<path d="M233.986 511.9L232.756 499.62L231.836 499.67L70.1459 507.46L70.5658 519.89L71.2763 541.18C96.2954 560.238 124.079 575.363 153.666 586.03L154.716 577.89C154.808 577.227 155.126 576.615 155.617 576.16C156.108 575.704 156.741 575.432 157.409 575.39C158.077 575.347 158.74 575.537 159.284 575.927C159.828 576.317 160.221 576.884 160.396 577.53L163.586 589.42C189.359 597.732 216.124 602.578 243.176 603.83L233.986 511.9Z" fill="#1E3A8A"/>
<path d="M182.005 204.05C200.58 185.475 200.58 155.359 182.005 136.784C163.43 118.209 133.314 118.209 114.739 136.784C96.1642 155.359 96.1642 185.475 114.739 204.05C133.314 222.625 163.43 222.625 182.005 204.05Z" fill="#A0616A"/>
<path d="M243.276 500.45L233.846 471.17L233.686 470.67L233.206 469.17L230.516 460.83C229.646 458.12 228.816 455.4 228.046 452.67C227.336 450.21 226.673 447.743 226.056 445.27C225.176 441.83 224.376 438.377 223.656 434.91C221.216 423.26 219.588 411.455 218.786 399.58C218.566 396.29 218.409 392.993 218.316 389.69C217.73 369.443 219.553 349.197 223.746 329.38C227.396 312.243 225.447 294.387 218.184 278.442C210.922 262.496 198.731 249.305 183.406 240.81C173.35 235.252 162.221 231.914 150.766 231.02C149.976 230.96 149.186 230.91 148.386 230.86C136.286 230.095 124.169 232.058 112.929 236.603C101.689 241.148 91.6137 248.16 83.4462 257.12C79.0716 261.885 75.2721 267.148 72.1258 272.8C63.3963 288.528 60.1192 306.704 62.806 324.49L74.0458 399.96L71.4862 431.73L68.4662 469.17L68.306 471.17L65.0858 511.09C64.9333 512.951 65.3838 514.811 66.3708 516.396C67.3577 517.981 68.8286 519.206 70.5658 519.89C71.5833 520.298 72.67 520.505 73.766 520.5C73.9262 520.5 74.0761 520.5 74.2362 520.49L233.986 511.9L235.446 511.82C236.779 511.751 238.078 511.376 239.242 510.725C240.407 510.074 241.406 509.163 242.163 508.064C242.92 506.966 243.414 505.707 243.607 504.387C243.8 503.067 243.687 501.72 243.276 500.45L243.276 500.45Z" fill="#CCCCCC"/>
<path d="M198.845 143.536C187.976 151.028 175.075 155.015 161.875 154.962C166.584 158.227 171.944 160.432 177.588 161.426C160.036 165.191 141.897 165.293 124.305 161.726C120.394 161.099 116.621 159.803 113.15 157.895C109.773 155.844 106.947 152.579 106.265 148.687C105.096 142.009 110.3 135.941 115.708 131.852C123.988 125.687 133.535 121.439 143.658 119.416C153.781 117.394 164.227 117.646 174.24 120.156C180.779 121.846 187.329 124.701 191.575 129.952C195.822 135.203 197.08 143.298 193.034 148.705L198.845 143.536Z" fill="#2F2E41"/>
<path d="M201.277 445.663C198.235 447.019 194.931 447.692 191.6 447.634C188.27 447.576 184.992 446.788 181.998 445.327C179.005 443.865 176.368 441.764 174.274 439.173C172.18 436.582 170.68 433.564 169.878 430.33L89.2344 422.961L115.502 390.085L188.056 402.123C193.577 401.137 199.269 402.21 204.051 405.14C208.834 408.07 212.376 412.653 214.006 418.02C215.635 423.387 215.24 429.165 212.894 434.26C210.548 439.355 206.415 443.412 201.277 445.663L201.277 445.663Z" fill="#A0616A"/>
<path d="M156.616 386.83L138.386 383.98L119.996 381.1C118.015 380.791 116.123 380.066 114.442 378.973C112.762 377.88 111.331 376.444 110.245 374.759C109.159 373.074 108.442 371.178 108.14 369.197C107.839 367.215 107.96 365.192 108.496 363.26L124.456 305.76C126.387 298.664 125.852 291.122 122.938 284.369C120.024 277.616 114.904 272.053 108.416 268.59C104.033 266.252 99.1657 264.966 94.1997 264.836C89.2337 264.706 84.3056 265.735 79.8062 267.84C75.2929 269.912 71.3224 273.004 68.2075 276.872C65.0926 280.74 62.9183 285.279 61.856 290.13L41.7261 380.74C40.37 386.852 40.3504 393.185 41.6686 399.305C42.9868 405.426 45.6116 411.189 49.3635 416.201C53.1154 421.213 57.9058 425.355 63.4068 428.344C68.9079 431.334 74.9898 433.099 81.2363 433.52L150.866 438.19C153.412 438.364 155.931 437.575 157.923 435.981C159.916 434.387 161.237 432.102 161.626 429.58C161.656 429.44 161.666 429.3 161.686 429.16L165.136 398.32L165.166 398.04C165.463 395.429 164.74 392.805 163.146 390.715C161.552 388.626 159.213 387.234 156.616 386.83Z" fill="#CCCCCC"/>
<path d="M465.093 339.03L460.92 341.306L409.508 369.358L405.335 371.635C403.311 372.742 401.808 374.608 401.157 376.822C400.506 379.037 400.76 381.419 401.863 383.446L440.148 453.614C441.256 455.639 443.122 457.142 445.336 457.793C447.55 458.444 449.932 458.19 451.96 457.086L451.971 457.081L511.707 424.487L511.717 424.481C513.742 423.374 515.245 421.508 515.896 419.294C516.547 417.079 516.293 414.697 515.19 412.67L476.905 342.502C475.797 340.477 473.931 338.974 471.717 338.323C469.503 337.672 467.12 337.926 465.093 339.03V339.03Z" fill="#E6E6E6"/>
<path d="M466.294 341.229L461.351 343.926L411.478 371.138L406.536 373.835C405.094 374.623 404.024 375.952 403.56 377.529C403.097 379.106 403.277 380.802 404.063 382.246L442.348 452.414C443.137 453.856 444.466 454.926 446.043 455.389C447.619 455.853 449.316 455.672 450.76 454.886L450.77 454.881L510.506 422.287L510.517 422.281C511.959 421.493 513.029 420.164 513.493 418.587C513.956 417.01 513.775 415.314 512.99 413.87L474.705 343.702C473.916 342.26 472.587 341.19 471.01 340.727C469.434 340.263 467.737 340.444 466.294 341.229V341.229Z" fill="white"/>
<path d="M467.696 361.04C467.511 360.703 467.199 360.453 466.83 360.345C466.461 360.236 466.065 360.278 465.726 360.46L463.736 361.55L443.446 372.62C443.11 372.806 442.862 373.116 442.754 373.485C442.647 373.853 442.69 374.249 442.873 374.586C443.057 374.923 443.367 375.173 443.734 375.283C444.102 375.392 444.498 375.352 444.836 375.17L467.116 363.01C467.453 362.824 467.703 362.513 467.811 362.144C467.92 361.775 467.879 361.379 467.696 361.04Z" fill="#E6E6E6"/>
<path d="M475.286 362.47C475.196 362.303 475.073 362.156 474.925 362.037C474.777 361.918 474.607 361.829 474.425 361.776C474.243 361.723 474.052 361.707 473.863 361.728C473.675 361.749 473.492 361.808 473.326 361.9L445.796 376.92C445.629 377.011 445.482 377.135 445.363 377.283C445.244 377.431 445.155 377.601 445.101 377.783C445.048 377.966 445.031 378.157 445.052 378.346C445.072 378.535 445.13 378.718 445.221 378.885C445.312 379.052 445.435 379.199 445.584 379.318C445.732 379.437 445.902 379.526 446.084 379.58C446.267 379.633 446.458 379.65 446.647 379.629C446.836 379.609 447.019 379.551 447.186 379.46L448.466 378.76L456.476 374.39H456.486L474.706 364.44C474.875 364.35 475.024 364.227 475.144 364.079C475.265 363.931 475.355 363.76 475.409 363.577C475.463 363.393 475.48 363.201 475.459 363.011C475.438 362.821 475.379 362.637 475.286 362.47V362.47Z" fill="#E6E6E6"/>
<path d="M445.366 386.41L436.626 370.38C436.535 370.219 436.384 370.1 436.207 370.05C436.029 369.999 435.838 370.021 435.676 370.11L431.436 372.42L429.236 373.62L417.426 380.06L415.136 381.31C414.975 381.401 414.857 381.552 414.806 381.73C414.755 381.907 414.777 382.098 414.866 382.26L415.426 383.29L423.606 398.29C423.695 398.45 423.844 398.568 424.02 398.619C424.196 398.67 424.385 398.648 424.546 398.56L438.646 390.87L440.846 389.67L445.086 387.36C445.167 387.316 445.239 387.257 445.297 387.186C445.355 387.114 445.398 387.032 445.424 386.943C445.45 386.855 445.459 386.763 445.449 386.671C445.439 386.579 445.411 386.491 445.366 386.41V386.41Z" fill="#E6E6E6"/>
<path d="M478.746 381.38C478.563 381.044 478.253 380.794 477.886 380.685C477.518 380.576 477.123 380.618 476.786 380.8L446.566 397.29C446.299 397.436 446.085 397.663 445.954 397.937C445.823 398.212 445.782 398.521 445.836 398.82C445.857 398.975 445.908 399.124 445.986 399.26C446.063 399.398 446.16 399.523 446.276 399.63L446.286 399.64C446.51 399.841 446.79 399.968 447.089 400.004C447.388 400.04 447.691 399.983 447.956 399.84L478.176 383.35C478.343 383.258 478.491 383.135 478.61 382.986C478.729 382.837 478.817 382.666 478.87 382.483C478.923 382.3 478.939 382.109 478.918 381.919C478.897 381.73 478.838 381.547 478.746 381.38Z" fill="#E6E6E6"/>
<path d="M486.346 382.81C486.254 382.643 486.13 382.496 485.982 382.377C485.833 382.258 485.662 382.17 485.479 382.117C485.296 382.064 485.105 382.048 484.915 382.069C484.726 382.09 484.543 382.148 484.376 382.24L448.906 401.59C448.639 401.731 448.425 401.953 448.293 402.225C448.162 402.497 448.121 402.803 448.176 403.1V403.11C448.197 403.265 448.248 403.414 448.326 403.55C448.403 403.693 448.505 403.822 448.626 403.93C448.847 404.136 449.128 404.266 449.428 404.302C449.728 404.337 450.032 404.277 450.296 404.13L485.766 384.78C486.103 384.595 486.354 384.284 486.462 383.915C486.571 383.546 486.529 383.148 486.346 382.81Z" fill="#E6E6E6"/>
<path d="M436.444 413.341C439.841 413.341 442.595 410.587 442.595 407.191C442.595 403.794 439.841 401.04 436.444 401.04C433.047 401.04 430.294 403.794 430.294 407.191C430.294 410.587 433.047 413.341 436.444 413.341Z" fill="#E6E6E6"/>
<path d="M483.093 312.03L478.92 314.306L427.508 342.358L423.335 344.635C421.311 345.742 419.808 347.608 419.157 349.822C418.506 352.037 418.76 354.419 419.863 356.446L458.148 426.614C459.256 428.639 461.122 430.142 463.336 430.793C465.55 431.444 467.932 431.19 469.96 430.086L469.971 430.081L529.707 397.487L529.717 397.481C531.742 396.374 533.245 394.508 533.896 392.294C534.547 390.079 534.293 387.697 533.19 385.67L494.905 315.502C493.797 313.477 491.931 311.974 489.717 311.323C487.503 310.672 485.12 310.926 483.093 312.03V312.03Z" fill="#CCCCCC"/>
<path d="M484.294 314.229L479.351 316.926L429.478 344.138L424.536 346.835C423.094 347.623 422.024 348.952 421.56 350.529C421.097 352.106 421.277 353.802 422.063 355.246L460.348 425.414C461.137 426.856 462.466 427.926 464.043 428.389C465.619 428.853 467.316 428.672 468.76 427.886L468.77 427.881L528.506 395.287L528.517 395.281C529.959 394.493 531.029 393.164 531.493 391.587C531.956 390.01 531.775 388.314 530.99 386.87L492.705 316.702C491.916 315.26 490.587 314.19 489.01 313.727C487.434 313.263 485.737 313.444 484.294 314.229Z" fill="white"/>
<path d="M485.696 334.04C485.511 333.703 485.199 333.453 484.83 333.345C484.461 333.236 484.065 333.278 483.726 333.46L473.466 339.06L470.606 340.62L461.446 345.62C461.11 345.806 460.862 346.116 460.754 346.485C460.647 346.853 460.69 347.249 460.873 347.586C461.057 347.923 461.366 348.173 461.734 348.283C462.102 348.392 462.498 348.352 462.836 348.17L473.636 342.28L475.896 341.04L485.116 336.01C485.453 335.824 485.703 335.513 485.811 335.144C485.92 334.775 485.879 334.379 485.696 334.04V334.04Z" fill="#CCCCCC"/>
<path d="M493.286 335.47C493.196 335.303 493.073 335.156 492.925 335.037C492.777 334.918 492.607 334.829 492.425 334.776C492.243 334.723 492.052 334.707 491.863 334.728C491.675 334.749 491.492 334.808 491.326 334.9L477.016 342.71L474.816 343.91L463.796 349.92C463.629 350.011 463.482 350.135 463.363 350.283C463.244 350.431 463.155 350.601 463.101 350.783C463.048 350.966 463.031 351.157 463.052 351.346C463.072 351.535 463.13 351.718 463.221 351.885C463.312 352.052 463.435 352.199 463.584 352.318C463.732 352.437 463.902 352.526 464.084 352.58C464.267 352.633 464.458 352.65 464.647 352.629C464.836 352.609 465.019 352.551 465.186 352.46L476.206 346.45L478.406 345.25L492.706 337.44C492.875 337.35 493.024 337.227 493.144 337.079C493.265 336.931 493.355 336.76 493.409 336.577C493.463 336.393 493.48 336.201 493.459 336.011C493.438 335.821 493.379 335.637 493.286 335.47V335.47Z" fill="#CCCCCC"/>
<path d="M463.366 359.41L456.396 346.63L455.196 344.43L454.626 343.38C454.535 343.219 454.384 343.1 454.207 343.05C454.029 342.999 453.838 343.021 453.676 343.11L439.526 350.83L433.136 354.31C432.975 354.401 432.857 354.552 432.806 354.73C432.755 354.907 432.777 355.098 432.866 355.26L433.436 356.3L434.056 357.45L434.636 358.5V358.51L441.606 371.29C441.695 371.45 441.844 371.569 442.02 371.619C442.196 371.67 442.385 371.648 442.546 371.56L463.086 360.36C463.167 360.316 463.239 360.257 463.297 360.186C463.355 360.114 463.398 360.032 463.424 359.944C463.45 359.855 463.459 359.762 463.449 359.671C463.439 359.579 463.411 359.491 463.366 359.41V359.41Z" fill="#1D4ED8"/>
<path d="M496.746 354.38C496.563 354.044 496.253 353.794 495.886 353.685C495.518 353.576 495.123 353.618 494.786 353.8L485.756 358.73L483.556 359.93L474.836 364.68L464.566 370.29C464.398 370.381 464.251 370.505 464.131 370.653C464.011 370.801 463.922 370.972 463.868 371.155C463.814 371.338 463.797 371.53 463.817 371.719C463.837 371.909 463.895 372.093 463.986 372.26C464.077 372.427 464.201 372.575 464.349 372.695C464.497 372.815 464.668 372.904 464.851 372.958C465.034 373.012 465.225 373.029 465.415 373.009C465.605 372.989 465.788 372.931 465.956 372.84L484.946 362.48L487.146 361.28L496.176 356.35C496.343 356.258 496.491 356.135 496.61 355.986C496.729 355.837 496.817 355.666 496.87 355.483C496.923 355.3 496.939 355.109 496.918 354.919C496.897 354.73 496.838 354.547 496.746 354.38V354.38Z" fill="#CCCCCC"/>
<path d="M504.346 355.81C504.254 355.643 504.13 355.496 503.982 355.377C503.833 355.258 503.662 355.17 503.479 355.117C503.296 355.064 503.105 355.047 502.915 355.069C502.726 355.09 502.543 355.148 502.376 355.24L488.106 363.03L485.906 364.23L466.906 374.59C466.739 374.681 466.59 374.804 466.47 374.952C466.35 375.1 466.261 375.27 466.207 375.453C466.153 375.636 466.135 375.828 466.156 376.017C466.176 376.207 466.234 376.391 466.325 376.558C466.417 376.725 466.54 376.873 466.689 376.992C466.838 377.112 467.009 377.2 467.192 377.253C467.375 377.307 467.567 377.323 467.756 377.302C467.946 377.281 468.129 377.222 468.296 377.13L487.286 366.77L489.486 365.57L503.766 357.78C504.103 357.595 504.354 357.284 504.462 356.915C504.571 356.545 504.529 356.148 504.346 355.81V355.81Z" fill="#CCCCCC"/>
<path d="M454.444 386.341C457.841 386.341 460.595 383.587 460.595 380.191C460.595 376.794 457.841 374.04 454.444 374.04C451.047 374.04 448.294 376.794 448.294 380.191C448.294 383.587 451.047 386.341 454.444 386.341Z" fill="#CCCCCC"/>
<path d="M458.576 414.768C459.611 414.87 460.637 415.054 461.643 415.317L531.393 353.441L526.883 331.243L559.494 320.058L571.297 358.579C572.251 361.691 572.169 365.028 571.065 368.09C569.96 371.151 567.892 373.772 565.171 375.558L476.497 433.777C476.628 437.783 475.536 441.733 473.367 445.103C471.198 448.473 468.054 451.103 464.354 452.643C460.654 454.182 456.572 454.559 452.653 453.722C448.734 452.886 445.162 450.876 442.412 447.96C439.663 445.044 437.867 441.36 437.262 437.398C436.658 433.436 437.274 429.384 439.029 425.781C440.783 422.178 443.593 419.194 447.085 417.227C450.577 415.26 454.585 414.402 458.576 414.768V414.768Z" fill="#FFB8B8"/>
<path d="M579.406 325.6L559.646 287.86C557.612 282.12 553.428 277.395 547.976 274.682C542.524 271.969 536.231 271.481 530.426 273.32C530.206 273.38 529.996 273.45 529.776 273.53C523.893 275.586 519.067 279.893 516.356 285.504C513.645 291.115 513.271 297.573 515.316 303.46L523.246 345.17C523.473 346.364 523.955 347.495 524.659 348.485C525.364 349.476 526.273 350.303 527.326 350.91C528.477 351.583 529.774 351.968 531.106 352.03C532.202 352.099 533.301 351.946 534.336 351.58L538.576 350.1L565.796 340.62L574.696 337.52C575.844 337.119 576.892 336.475 577.769 335.632C578.646 334.79 579.331 333.768 579.777 332.637C580.224 331.506 580.422 330.292 580.358 329.078C580.294 327.864 579.97 326.678 579.406 325.6Z" fill="#1D4ED8"/>
<path d="M654 471.17H1C0.734784 471.17 0.480429 471.065 0.292892 470.877C0.105356 470.69 0 470.435 0 470.17C0 469.905 0.105356 469.65 0.292892 469.463C0.480429 469.275 0.734784 469.17 1 469.17H654C654.265 469.17 654.52 469.275 654.707 469.463C654.895 469.65 655 469.905 655 470.17C655 470.435 654.895 470.69 654.707 470.877C654.52 471.065 654.265 471.17 654 471.17Z" fill="#3F3D56"/>
<path d="M113.496 452.67V453.17C113.5 456.56 114.487 459.877 116.338 462.717C118.19 465.557 120.826 467.799 123.926 469.17C126.15 470.164 128.56 470.675 130.996 470.67H292.496V452.67H113.496Z" fill="#1E40AF"/>
<path d="M405.256 334.04C402.693 328.75 398.747 324.251 393.836 321.02C391.61 319.546 389.208 318.357 386.686 317.48C383.25 316.28 379.636 315.668 375.996 315.67H220.996C212.38 315.68 204.119 319.107 198.026 325.2C191.933 331.293 188.506 339.554 188.496 348.17V438.17C188.493 439.433 188.567 440.696 188.716 441.95C188.936 443.826 189.317 445.68 189.856 447.49C190.39 449.273 191.08 451.007 191.916 452.67C194.608 458.079 198.756 462.63 203.894 465.81C209.031 468.99 214.954 470.673 220.996 470.67H375.996C380.265 470.672 384.491 469.832 388.435 468.199C392.379 466.567 395.962 464.173 398.981 461.155C401.999 458.136 404.393 454.553 406.025 450.609C407.658 446.665 408.498 442.438 408.496 438.17V348.17C408.503 343.275 407.395 338.443 405.256 334.04Z" fill="#1E40AF"/>
<path d="M306.996 401.17C311.414 401.17 314.996 397.588 314.996 393.17C314.996 388.752 311.414 385.17 306.996 385.17C302.578 385.17 298.996 388.752 298.996 393.17C298.996 397.588 302.578 401.17 306.996 401.17Z" fill="white"/>
</g>
<defs>
<clipPath id="clip0">
<rect width="715.296" height="604.17" fill="white"/>
</clipPath>
</defs>
</svg>
