<svg width="513" height="428" viewBox="0 0 513 428" fill="none" xmlns="http://www.w3.org/2000/svg">
<path d="M261.12 255.813C259.413 256.453 257.707 256.667 256 256.667C254.293 256.667 252.587 256.453 250.88 255.813L0 172.187V368.667C0 401.093 26.24 427.333 58.6667 427.333H453.333C485.76 427.333 512 401.093 512 368.667V172.187L261.12 255.813Z" fill="#1E40AF"/>
<path d="M512 123.333V172.187L261.12 255.813C259.413 256.453 257.707 256.667 256 256.667C254.293 256.667 252.587 256.453 250.88 255.813L0 172.187V123.333C0 90.9067 26.24 64.6667 58.6667 64.6667H453.333C485.76 64.6667 512 90.9067 512 123.333Z" fill="#2563EB"/>
<path d="M256 256.667C254.293 256.667 252.587 256.389 250.944 255.835L10.944 175.835C2.55999 173.061 -1.96268 163.995 0.831987 155.611C3.60532 147.227 12.672 142.683 21.0773 145.499L256 223.792L490.944 145.477C499.349 142.683 508.395 147.227 511.189 155.589C513.984 163.973 509.461 173.04 501.077 175.835L261.077 255.835C259.413 256.389 257.707 256.667 256 256.667Z" fill="black"/>
<path d="M453.333 427.333H58.6667C26.304 427.333 0 401.029 0 368.667V123.333C0 90.9707 26.304 64.6667 58.6667 64.6667H453.333C485.696 64.6667 512 90.9707 512 123.333V368.667C512 401.029 485.696 427.333 453.333 427.333ZM58.6667 96.6667C43.968 96.6667 32 108.635 32 123.333V368.667C32 383.365 43.968 395.333 58.6667 395.333H453.333C468.032 395.333 480 383.365 480 368.667V123.333C480 108.635 468.032 96.6667 453.333 96.6667H58.6667Z" fill="black"/>
<path d="M325.333 96.6667C316.501 96.6667 309.333 89.4987 309.333 80.6667V38C309.333 35.056 306.944 32.6667 304 32.6667H208C205.056 32.6667 202.667 35.056 202.667 38V80.6667C202.667 89.4987 195.499 96.6667 186.667 96.6667C177.835 96.6667 170.667 89.4987 170.667 80.6667V38C170.667 17.4133 187.413 0.666656 208 0.666656H304C324.587 0.666656 341.333 17.4133 341.333 38V80.6667C341.333 89.4987 334.165 96.6667 325.333 96.6667Z" fill="black"/>
</svg>
